<?xml version="1.0" standalone="no"?><!DOCTYPE svg PUBLIC "-//W3C//DTD SVG 1.1//EN" "http://www.w3.org/Graphics/SVG/1.1/DTD/svg11.dtd"><svg t="1557885832181" class="icon" style="" viewBox="0 0 1024 1024" version="1.1" xmlns="http://www.w3.org/2000/svg" p-id="8816" data-spm-anchor-id="a313x.7781069.0.i51" xmlns:xlink="http://www.w3.org/1999/xlink" width="200" height="200"><defs><style type="text/css"></style></defs><path d="M219.005 365.192h473.799v48H219.005z" fill="#B8CCD7" p-id="8817"></path><path d="M428.666 567.874h64v326.881h-64zM628.666 959.046h-336c-17.673 0-32-14.327-32-32 0-17.673 14.327-32 32-32h336c17.673 0 32 14.327 32 32 0 17.673-14.326 32-32 32z" fill="#B9B9B9" p-id="8818" data-spm-anchor-id="a313x.7781069.0.i52" class="selected"></path><path d="M460.666 662.367L130.627 332.329c-18.369-18.37-23.814-45.747-13.873-69.747s33.15-39.507 59.127-39.507H745.45c25.978 0 49.187 15.508 59.128 39.508s4.495 51.377-13.874 69.747L460.666 662.367zM175.882 287.074l284.784 284.783 284.783-284.784-569.567 0.001z m-0.303 0.02c-0.001 0-0.001 0 0 0-0.001 0-0.001 0 0 0z m0.102-0.249c0.001 0 0 0 0 0z m569.97 0z" fill="#B9B9B9" p-id="8819" data-spm-anchor-id="a313x.7781069.0.i53" class="selected"></path><path d="M730.379 470.437c-23.28 0-45.996-4.259-67.518-12.659l17.453-44.715c15.936 6.22 32.78 9.374 50.064 9.374 75.954 0 137.747-61.792 137.747-137.746 0-75.954-61.793-137.747-137.747-137.747s-137.747 61.793-137.747 137.747h-48c0-102.421 83.326-185.747 185.747-185.747s185.747 83.326 185.747 185.747c0.001 102.421-83.325 185.746-185.746 185.746z" fill="#B9B9B9" p-id="8820" data-spm-anchor-id="a313x.7781069.0.i54" class="selected"></path></svg>