<?xml version="1.0" standalone="no"?><!DOCTYPE svg PUBLIC "-//W3C//DTD SVG 1.1//EN" "http://www.w3.org/Graphics/SVG/1.1/DTD/svg11.dtd"><svg t="1557885858860" class="icon" style="" viewBox="0 0 1024 1024" version="1.1" xmlns="http://www.w3.org/2000/svg" p-id="9219" xmlns:xlink="http://www.w3.org/1999/xlink" width="200" height="200"><defs><style type="text/css"></style></defs><path d="M67.26 512a444.74 449.08 0 1 0 889.48 0 444.74 449.08 0 1 0-889.48 0Z" fill="#F4F4F4" p-id="9220"></path><path d="M234.53 223.5l562.94 0 0 579-562.94 0 0-579Z" fill="#95999D" p-id="9221"></path><path d="M254.92 265.5l518.47 0 0 500.64-518.47 0 0-500.64Z" fill="#010000" p-id="9222"></path><path d="M340 273.4h352a74.88 74.88 0 0 1 74.88 74.88v63.42A74.88 74.88 0 0 1 692 486.58H271.55a6.47 6.47 0 0 1-6.47-6.47V348.28A74.88 74.88 0 0 1 340 273.4z" fill="#FFFFFF" p-id="9223"></path><path d="M339 281.16h352A74.88 74.88 0 0 1 765.92 356v139.53H264.08V356A74.88 74.88 0 0 1 339 281.16z" fill="#3B4254" p-id="9224"></path><path d="M319.57 781.72h-6.08c-33.63-9.14-48.64-23.52-48.64-48.64l3-184.34v-45.67h87.94v48.2l0.91 230.44zM708.27 781.72h6.08C748 772.58 763 758.2 763 733.08l-1.84-183a363.83 363.83 0 0 1 3.21-47h-92.29v48.2l-0.91 230.44zM365.24 502.18h94.92v279.54h-94.92zM468.54 502.18h94.92v279.54h-94.92zM565.36 502.18h94.92v279.54h-94.92z" fill="#FFFFFF" p-id="9225"></path><path d="M332.5 502.77h47.27V672.9H332.5zM432.33 502.77h47.27V672.9h-47.27zM536.04 502.77h47.27V672.9h-47.27zM638.53 502.77h47.27V672.9h-47.27z" fill="#B9B9B9" p-id="9226" data-spm-anchor-id="a313x.7781069.0.i58" class="selected"></path><path d="M641.33 418.91H683v73.67h-41.67zM538.85 418.91h41.67v73.67h-41.67zM435.13 418.91h41.67v73.67h-41.67zM335.84 418.91h41.67v73.67h-41.67z" fill="#2A3347" p-id="9227"></path></svg>