<?xml version="1.0" standalone="no"?><!DOCTYPE svg PUBLIC "-//W3C//DTD SVG 1.1//EN" "http://www.w3.org/Graphics/SVG/1.1/DTD/svg11.dtd"><svg t="1558177973612" class="icon" style="" viewBox="0 0 1024 1024" version="1.1" xmlns="http://www.w3.org/2000/svg" p-id="1991" xmlns:xlink="http://www.w3.org/1999/xlink" width="20" height="20"><defs><style type="text/css"></style></defs><path d="M411.29774 607.773912c-17.969739-7.505166-41.178431 0.226621-52.256215 17.536493-11.224422 17.389855-5.952143 38.099047 11.870959 46.190762 18.103046 8.231687 42.124908 0.419916 53.329334-17.416517C435.279611 636.061588 429.474105 615.492368 411.29774 607.773912zM455.568886 589.477571c-6.88529-2.719456-15.503566 0.579884-19.542758 7.325202-3.919216 6.791975-1.752983 14.523762 5.145638 17.363194 7.018596 2.879424 16.003466-0.459908 20.042658-7.365194C465.086983 599.862161 462.574152 592.037059 455.568886 589.477571zM427.547824 469.461574c-115.943478 11.437712-203.885889 82.203559-196.340732 158.041725 7.531827 75.898154 107.631807 128.134373 223.601946 116.723322 115.970139-11.437712 203.885889-82.203559 196.354063-158.108378C643.65127 510.280077 543.544624 458.037193 427.547824 469.461574zM529.307472 648.412451c-23.6686 53.342665-91.754982 81.783643-149.503433 63.220689-55.742185-17.929747-79.357462-72.798774-54.93568-122.222222 23.955209-48.456975 86.336066-75.858162 141.511698-61.54769C523.515297 542.573619 552.662801 596.262881 529.307472 648.412451zM512.010931 0.242085c-282.703459 0-511.89762 229.180831-511.89762 511.89762 0 282.703459 229.194161 511.89762 511.89762 511.89762 282.71679 0 511.89762-229.194161 511.89762-511.89762C1023.908552 229.422915 794.727721 0.242085 512.010931 0.242085zM455.555556 795.056455c-145.324268 0-293.881224-70.185963-293.881224-185.629541 0-60.34793 38.378991-130.160635 104.452443-196.027461 88.235686-87.909085 191.128441-127.961074 229.827368-89.382124 17.08325 17.003266 18.736253 46.45071 7.758448 81.610345-5.725522 17.689795 16.663334 7.891755 16.663334 7.931747 71.325735-29.760715 133.539959-31.507032 156.288742 0.859828 12.137572 17.243218 10.951143 41.46504-0.213291 69.499433-5.172299 12.917417 1.593015 14.930347 11.464374 17.876425 40.171966 12.417516 84.909685 42.444844 84.909685 95.360928C772.792108 684.745184 646.070786 795.056455 455.555556 795.056455zM718.642938 427.956542c4.712391-14.450443 1.766313-30.953809-9.19816-43.05139-10.951143-12.070919-27.127908-16.663334-42.031594-13.523962l0-0.026661c-12.464174 2.692795-24.721722-5.265614-27.387856-17.663134-2.666133-12.457508 5.278944-24.695061 17.743118-27.334533 30.527228-6.465374 63.580617 2.939412 85.969473 27.707792 22.442178 24.761714 28.447644 58.474972 18.849563 88.049057-3.905885 12.09758-16.936613 18.722922-29.054189 14.843698-12.137572-3.919216-18.776245-16.923282-14.870359-28.987536l-0.013331 0L718.649603 427.956542zM853.202693 471.28121c-0.013331 0.013331-0.013331 0.079984-0.013331 0.106645-4.565754 14.023862-19.709391 21.702326-33.773245 17.163234-14.130507-4.552423-21.848964-19.589415-17.296541-33.6666l0-0.013331c13.997201-43.158035 5.118976-92.408185-27.561154-128.540958-32.706792-36.112777-80.930481-49.910018-125.48157-40.478571-14.48377 3.086049-28.747584-6.125442-31.833633-20.569219-3.09938-14.397121 6.145438-28.627608 20.635873-31.713657l0.026661 0c62.614144-13.270679 130.493901 6.118776 176.511364 56.955276C860.421249 341.287209 872.8321 410.540025 853.202693 471.28121z" p-id="1992" fill="#8a8a8a"></path></svg>